<?xml version="1.0" standalone="no"?>
<!DOCTYPE svg PUBLIC "-//W3C//DTD SVG 20010904//EN"
 "http://www.w3.org/TR/2001/REC-SVG-20010904/DTD/svg10.dtd">
<svg version="1.0" xmlns="http://www.w3.org/2000/svg"
 width="400.000000pt" height="400.000000pt" viewBox="0 0 400.000000 400.000000"
 preserveAspectRatio="xMidYMid meet">
<metadata>
Created by potrace 1.14, written by Peter Selinger 2001-2017
</metadata>
<g transform="translate(0.000000,400.000000) scale(0.100000,-0.100000)"
fill="#000000" stroke="none">
<path d="M0 2000 l0 -2000 2000 0 2000 0 0 2000 0 2000 -2000 0 -2000 0 0
-2000z m390 1354 c0 -14 -21 -19 -33 -7 -9 9 13 34 24 27 5 -3 9 -12 9 -20z
m-17 -71 c4 -3 3 -10 -2 -17 -14 -17 -81 -8 -74 9 4 13 58 18 76 8z m24 -161
c-2 -15 -7 -33 -11 -40 -4 -7 -5 -16 -1 -21 3 -6 -1 -13 -9 -18 -8 -4 -14 -17
-13 -28 2 -16 -4 -20 -33 -20 -33 0 -35 2 -32 30 2 17 8 35 14 42 5 7 7 17 4
22 -4 5 -2 12 4 16 5 3 10 15 10 26 0 15 7 19 35 19 32 0 35 -2 32 -28z m1536
-19 c4 -3 3 -11 -3 -18 -7 -8 -9 -19 -6 -24 4 -5 2 -13 -4 -16 -6 -4 -8 -15
-5 -26 4 -10 3 -19 -2 -20 -4 0 -20 -2 -35 -4 -36 -5 -42 7 -28 53 6 20 13 42
15 48 3 11 53 16 68 7z m80 0 c4 -3 2 -12 -4 -20 -9 -10 -7 -13 11 -13 19 0
21 -4 15 -32 -10 -45 -15 -51 -30 -38 -10 8 -15 8 -20 0 -16 -25 -22 8 -12 58
10 48 23 63 40 45z m-330 -39 c4 -4 3 -12 -1 -18 -4 -6 -7 -20 -7 -31 0 -16
-6 -20 -35 -19 -41 1 -51 29 -10 29 15 0 25 6 26 15 2 25 4 30 12 30 5 0 12
-3 15 -6z m126 -3 c2 -1 -2 -7 -8 -15 -6 -7 -9 -20 -6 -28 7 -18 -21 -33 -31
-17 -4 7 -10 6 -19 -1 -18 -15 -31 6 -16 24 6 7 8 16 5 19 -18 17 35 30 75 18z
m-1363 -42 c10 -17 -13 -36 -27 -22 -12 12 -4 33 11 33 5 0 12 -5 16 -11z
m1664 -3 c0 -8 -4 -17 -9 -21 -12 -7 -24 12 -16 25 9 15 25 12 25 -4z m-1716
-142 c-3 -32 -11 -78 -18 -96 -3 -10 -8 -24 -10 -32 -6 -19 -73 -13 -67 6 2 7
4 22 6 33 1 11 4 22 5 25 1 3 3 10 4 15 1 6 5 18 9 28 4 9 9 23 11 30 2 7 17
12 32 11 22 -1 29 -6 28 -20z m86 0 c0 -8 -7 -14 -15 -14 -15 0 -21 21 -9 33
10 9 24 -2 24 -19z m234 -6 c-5 -7 -9 -20 -9 -28 0 -8 -8 -16 -19 -18 -16 -3
-18 0 -12 24 10 38 26 58 39 45 5 -5 6 -15 1 -23z m990 1 c-4 -7 -8 -22 -9
-33 -3 -38 -17 -96 -24 -97 -3 0 -18 -2 -33 -4 -30 -4 -46 11 -30 27 6 6 8 16
6 23 -3 7 -1 16 4 19 6 3 8 15 5 26 -3 11 -1 20 5 20 6 0 8 10 5 21 -5 19 -3
21 20 15 15 -3 29 -1 33 5 4 7 10 7 16 1 6 -6 7 -16 2 -23z m99 19 c12 10 16
9 20 -2 4 -9 2 -18 -4 -22 -6 -3 -8 -12 -5 -20 3 -7 1 -16 -5 -20 -5 -3 -7
-14 -4 -24 3 -10 1 -21 -4 -24 -6 -4 -8 -13 -4 -21 3 -8 1 -15 -3 -16 -69 -6
-86 0 -65 25 6 7 8 16 5 19 -3 3 -3 11 2 18 4 7 8 28 10 47 3 37 23 59 35 40
6 -9 11 -9 22 0z m112 2 c5 8 11 8 21 -1 10 -8 11 -15 4 -24 -5 -6 -7 -15 -3
-18 3 -4 2 -12 -4 -19 -5 -7 -10 -26 -11 -42 -3 -39 -15 -52 -48 -51 -29 2
-43 18 -25 29 6 4 8 13 5 20 -3 8 0 17 6 21 8 5 8 11 -1 21 -9 11 -8 15 5 20
9 3 13 10 10 16 -3 5 -3 16 0 25 5 12 9 13 20 4 10 -9 16 -9 21 -1z m152 -4
c3 -3 0 -12 -6 -20 -7 -8 -10 -20 -7 -25 4 -5 2 -12 -3 -16 -6 -3 -13 -25 -16
-49 -7 -42 -8 -43 -38 -41 -25 2 -31 7 -29 21 1 11 4 33 5 50 2 17 7 36 11 43
5 7 5 15 2 18 -3 3 -1 12 5 19 10 12 64 12 76 0z m115 -9 c6 -12 5 -17 -3 -17
-6 0 -9 -7 -6 -15 4 -8 2 -17 -3 -20 -5 -3 -9 -13 -9 -23 0 -22 -5 -44 -14
-59 -8 -13 -62 -11 -62 3 3 39 19 104 27 104 5 0 6 5 3 10 -12 20 2 36 30 35
15 -1 32 -9 37 -18z m-602 -2 c0 -8 -4 -15 -9 -15 -13 0 -22 16 -14 24 11 11
23 6 23 -9z m0 -34 c0 -6 -5 -13 -10 -16 -6 -4 -8 -15 -5 -25 3 -10 1 -21 -4
-24 -6 -4 -8 -13 -5 -20 6 -16 -22 -30 -31 -16 -4 6 -3 15 1 22 4 7 9 23 10
36 2 14 5 31 8 38 6 16 36 19 36 5z m-1120 -46 c0 -7 7 -18 17 -23 26 -15 9
-40 -26 -37 -39 3 -47 10 -33 28 7 8 9 17 6 20 -9 9 5 27 22 27 8 0 14 -7 14
-15z m160 0 c0 -8 -9 -15 -20 -15 -20 0 -26 11 -13 23 12 13 33 7 33 -8z
m1620 1 c0 -8 -5 -18 -10 -21 -6 -4 -7 -11 -4 -17 7 -11 -15 -30 -27 -23 -11
7 15 75 28 75 7 0 13 -6 13 -14z m-1675 -46 c0 -8 -8 -16 -17 -18 -13 -2 -18
3 -18 18 0 15 5 20 18 18 9 -2 17 -10 17 -18z m-47 -134 c2 -9 -2 -16 -8 -16
-10 0 -10 -3 -1 -14 8 -10 9 -16 1 -21 -6 -4 -10 -12 -9 -18 1 -7 -1 -20 -4
-29 -4 -10 -9 -24 -11 -32 -3 -9 -17 -13 -38 -12 -29 2 -33 5 -30 27 1 13 5
31 9 39 3 8 5 23 4 33 -1 9 3 17 9 17 6 0 9 4 6 9 -4 5 -4 16 0 24 7 20 68 15
72 -7z m76 8 c3 -8 2 -24 -4 -33 -5 -10 -6 -21 -3 -25 3 -3 1 -6 -6 -6 -8 0
-11 -6 -7 -16 3 -9 3 -21 -1 -27 -4 -7 -8 -19 -8 -27 0 -8 -8 -16 -18 -18 -17
-3 -18 0 -12 30 4 18 10 38 13 43 4 6 5 18 4 28 -2 9 2 17 9 17 8 0 9 4 0 13
-8 10 -7 17 1 25 16 16 25 15 32 -4z m-194 -9 c0 -8 -5 -15 -11 -15 -8 0 -8
-4 0 -14 9 -10 9 -16 1 -21 -6 -4 -9 -13 -6 -20 2 -7 -1 -18 -7 -24 -7 -7 -12
-19 -12 -29 0 -11 -9 -17 -32 -18 -31 -2 -33 0 -33 32 0 18 4 35 10 39 5 3 7
12 4 19 -3 8 -1 17 5 21 6 3 11 15 11 26 0 15 7 19 35 19 24 0 35 -5 35 -15z
m1182 2 c1 -25 -15 -97 -22 -102 -5 -3 -7 -12 -4 -19 7 -18 -15 -31 -28 -18
-8 8 -8 15 0 25 7 8 9 17 5 20 -3 4 -1 13 5 20 7 8 9 17 5 20 -3 4 -1 13 6 21
6 8 11 18 10 22 -3 18 1 26 12 22 6 -2 11 -7 11 -11z m122 -15 c-4 -15 -11
-32 -16 -39 -5 -7 -7 -16 -4 -21 3 -6 1 -23 -5 -40 -8 -25 -15 -29 -41 -28
-17 1 -33 7 -36 14 -2 6 0 12 5 12 5 0 9 16 10 35 1 20 6 41 12 49 6 7 8 16 5
19 -13 12 8 25 41 25 33 0 34 -2 29 -26z m125 19 c2 -1 -1 -7 -6 -13 -5 -7
-10 -29 -12 -48 -1 -19 -6 -39 -11 -44 -4 -4 -6 -15 -3 -22 3 -8 1 -14 -3 -15
-5 0 -21 -2 -36 -4 -15 -2 -30 0 -32 4 -5 7 8 68 21 101 3 8 7 20 8 25 1 6 3
13 3 16 2 5 54 5 71 0z m114 1 c4 -2 3 -10 -3 -17 -7 -8 -9 -19 -6 -24 4 -5 1
-13 -5 -16 -5 -4 -8 -13 -5 -21 3 -7 1 -16 -4 -19 -6 -4 -10 -17 -10 -30 0
-20 -5 -23 -35 -22 -32 1 -45 14 -28 30 3 4 8 19 9 33 2 15 6 34 10 43 4 9 6
24 5 34 -2 14 4 17 31 15 18 -1 37 -3 41 -6z m122 -2 c3 -6 -1 -13 -10 -16
-11 -5 -13 -10 -5 -19 8 -10 8 -15 0 -20 -6 -4 -8 -15 -5 -26 4 -11 2 -19 -5
-19 -7 0 -10 -7 -7 -15 7 -17 -8 -28 -41 -30 -27 -1 -37 9 -25 28 4 6 8 17 8
22 1 6 5 31 9 58 8 45 10 47 42 47 18 0 36 -5 39 -10z m120 0 c3 -6 -1 -13
-10 -16 -11 -5 -13 -10 -5 -19 8 -10 8 -15 0 -20 -6 -4 -10 -12 -9 -18 1 -7 0
-19 -4 -27 -3 -8 -7 -22 -9 -30 -3 -8 -18 -15 -37 -16 -29 -2 -32 1 -27 20 3
11 11 47 18 79 12 55 13 57 44 57 18 0 36 -5 39 -10z m80 1 c3 -5 1 -12 -5
-16 -5 -3 -10 -15 -10 -26 0 -10 -3 -19 -7 -19 -5 0 -9 -16 -10 -36 -2 -36
-17 -63 -28 -52 -3 3 -1 27 5 54 7 27 13 60 15 74 2 14 4 26 4 28 2 6 31 1 36
-7z m-1867 -287 c-1 -19 -5 -34 -10 -34 -5 0 -6 -9 -3 -20 4 -11 2 -20 -4 -20
-6 0 -11 -11 -11 -24 0 -22 -4 -25 -37 -22 -34 2 -38 4 -39 33 -1 19 4 34 12
37 8 3 11 12 8 20 -3 8 0 17 6 21 9 6 9 9 0 15 -22 14 -1 29 40 28 38 0 39 -1
38 -34z m116 4 c-4 -18 -8 -40 -9 -48 0 -9 -5 -22 -10 -30 -5 -8 -10 -22 -10
-30 0 -10 -11 -15 -30 -16 -44 -1 -56 5 -45 24 14 28 23 56 21 69 -1 6 3 14 8
17 5 3 7 15 4 26 -5 18 0 20 37 20 l42 0 -8 -32z m81 23 c3 -5 1 -12 -4 -16
-5 -3 -10 -13 -10 -23 0 -22 -5 -44 -14 -59 -4 -6 -4 -18 -1 -27 6 -15 -21
-35 -32 -23 -4 4 17 103 31 145 5 14 21 16 30 3z m990 0 c7 -12 -12 -24 -25
-16 -11 7 -4 25 10 25 5 0 11 -4 15 -9z m117 4 c7 -8 -15 -105 -25 -105 -4 0
-6 -9 -2 -19 3 -11 1 -22 -5 -26 -16 -10 -34 10 -24 26 15 25 11 52 -8 57 -19
5 -26 32 -7 32 5 0 7 5 4 10 -10 17 5 30 34 30 15 0 30 -2 33 -5z m119 -8 c1
-25 -15 -97 -22 -97 -5 0 -8 -10 -6 -22 2 -20 -3 -23 -35 -24 -21 -1 -38 1
-38 3 0 6 29 123 35 139 4 13 65 13 66 1z m128 4 c2 -1 -2 -8 -9 -16 -6 -8 -9
-19 -6 -24 4 -5 2 -13 -4 -16 -6 -4 -8 -15 -5 -26 4 -10 2 -19 -4 -19 -5 0
-11 -10 -13 -22 -2 -18 -10 -23 -36 -24 -30 -2 -33 1 -28 20 3 11 11 47 18 78
l12 57 35 -4 c20 -1 38 -3 40 -4z m114 2 c4 -3 3 -11 -4 -19 -6 -8 -9 -17 -6
-21 4 -3 2 -12 -4 -19 -6 -8 -9 -20 -6 -29 4 -8 2 -17 -3 -20 -6 -4 -10 -14
-10 -24 0 -13 -9 -17 -36 -18 -32 -1 -35 1 -30 20 3 12 9 39 12 60 4 20 10 37
14 37 5 0 6 9 3 19 -4 17 0 20 29 19 18 0 37 -3 41 -5z m122 -3 c3 -5 1 -12
-5 -15 -6 -4 -8 -15 -5 -26 4 -10 2 -19 -3 -19 -5 0 -13 -19 -18 -42 -8 -39
-12 -43 -42 -44 -30 -2 -33 1 -28 20 3 11 11 46 17 78 11 55 12 56 45 56 19 0
36 -4 39 -8z m70 -22 c-4 -18 -11 -37 -15 -42 -5 -5 -6 -15 -3 -22 3 -8 0 -14
-7 -14 -7 0 -9 -8 -5 -19 6 -21 -9 -36 -25 -26 -7 4 -8 11 -2 18 9 11 20 58
31 130 0 4 8 7 17 7 12 0 14 -7 9 -32z m-1855 -244 c0 -8 -5 -14 -12 -14 -8 0
-9 -3 -2 -10 12 -12 -4 -80 -18 -80 -4 0 -5 -6 -2 -14 6 -16 -11 -30 -26 -21
-8 5 -8 11 0 20 6 7 10 17 9 21 -1 5 0 14 1 19 8 28 3 51 -13 63 -21 16 -12
36 14 29 10 -3 22 -1 25 4 7 13 24 1 24 -17z m120 0 c0 -8 -5 -14 -11 -14 -8
0 -8 -4 0 -14 9 -10 9 -16 1 -21 -6 -4 -8 -15 -5 -25 3 -10 0 -20 -9 -23 -9
-4 -12 -14 -9 -27 5 -20 2 -21 -36 -17 -49 5 -56 10 -37 26 8 7 13 18 10 26
-3 7 -1 16 5 19 6 4 8 13 5 20 -3 8 0 17 5 21 6 3 9 11 6 16 -11 17 4 27 40
27 23 0 35 -5 35 -14z m73 10 c4 -4 3 -12 -1 -18 -3 -6 -7 -23 -8 -37 -1 -14
-4 -35 -8 -46 -5 -16 -3 -21 11 -19 10 0 18 -6 18 -14 0 -9 -13 -15 -38 -17
-38 -2 -38 -2 -32 30 4 18 11 37 16 43 5 6 6 14 2 17 -3 4 -1 13 5 20 7 8 9
17 6 20 -7 7 4 27 15 27 4 0 11 -3 14 -6z m1115 -12 c2 -7 -6 -12 -17 -12 -21
0 -27 11 -14 24 9 9 26 2 31 -12z m118 6 c4 -4 2 -14 -4 -21 -7 -8 -9 -17 -5
-20 3 -4 1 -13 -5 -20 -7 -8 -9 -17 -6 -20 3 -3 2 -12 -2 -19 -5 -7 -9 -20 -9
-28 0 -9 -11 -16 -29 -18 -33 -4 -52 10 -40 29 4 7 9 26 11 43 2 16 8 34 13
41 5 7 7 15 4 18 -3 3 -3 10 0 15 7 11 61 10 72 0z m123 3 c2 -1 -2 -8 -9 -16
-6 -8 -9 -19 -6 -24 4 -5 2 -12 -3 -16 -5 -3 -10 -13 -10 -23 -1 -61 -5 -67
-43 -68 -37 -1 -52 16 -28 31 6 4 8 10 6 14 -5 7 5 56 19 97 3 9 50 12 74 5z
m114 2 c4 -3 3 -11 -4 -19 -6 -8 -9 -17 -6 -21 4 -3 2 -12 -5 -20 -6 -7 -8
-16 -5 -19 3 -3 -1 -20 -8 -37 -10 -25 -19 -32 -45 -33 -30 -2 -31 -1 -24 30
4 17 8 38 9 46 1 8 5 23 9 33 3 9 8 23 10 31 4 13 52 19 69 9z m112 -27 c-2
-17 -5 -33 -6 -36 -1 -3 -3 -9 -4 -15 -16 -73 -16 -73 -51 -72 -19 1 -34 3
-34 5 0 2 7 31 15 63 9 33 13 64 10 69 -6 10 11 17 47 17 25 0 27 -3 23 -31z
m85 19 c0 -8 -7 -15 -15 -15 -16 0 -20 12 -8 23 11 12 23 8 23 -8z m-562 -43
c2 -6 -2 -12 -8 -12 -7 0 -10 -7 -6 -16 3 -9 3 -21 -1 -27 -4 -7 -8 -19 -8
-27 0 -9 -13 -15 -37 -16 -21 -2 -38 0 -38 4 0 7 18 77 25 99 5 16 67 12 73
-5z m548 -15 c-3 -28 -14 -47 -27 -47 -10 0 -4 53 8 73 8 14 22 -3 19 -26z
m-942 -22 c10 26 27 6 20 -23 -9 -36 -23 -50 -33 -33 -6 9 -11 10 -15 2 -22
-35 -36 12 -15 51 11 20 13 20 24 5 11 -16 13 -16 19 -2z m141 3 c2 -2 1 -17
-4 -34 -6 -23 -13 -29 -37 -30 -38 -1 -48 5 -34 21 6 7 10 17 9 21 -4 24 4 31
31 29 17 -1 32 -4 35 -7z m120 0 c4 -4 3 -13 -1 -20 -5 -7 -9 -20 -9 -28 0 -9
-12 -15 -33 -16 -36 -2 -49 10 -33 30 6 7 8 16 5 19 -3 3 -3 10 0 15 6 11 61
11 71 0z m-882 -34 c9 -10 -4 -34 -19 -34 -8 0 -14 6 -14 13 0 22 19 35 33 21z
m515 -16 c-6 -18 -28 -21 -28 -4 0 9 7 16 16 16 9 0 14 -5 12 -12z m2730 1
c-2 -6 -8 -10 -13 -10 -5 0 -11 4 -13 10 -2 6 4 11 13 11 9 0 15 -5 13 -11z
m-3525 -126 c4 -3 2 -12 -4 -19 -6 -7 -11 -27 -11 -44 -1 -17 -5 -33 -10 -36
-4 -3 -8 -14 -8 -24 0 -22 -15 -34 -30 -25 -7 4 -7 11 -2 18 5 7 10 19 10 27
1 23 7 44 15 58 5 6 5 17 2 22 -13 21 20 41 38 23z m114 -29 c-1 -19 -5 -34
-10 -34 -4 0 -5 -9 -2 -20 3 -11 2 -20 -4 -20 -5 0 -11 -10 -13 -22 -2 -19 -9
-23 -38 -23 -33 0 -35 2 -32 30 2 16 8 35 13 41 5 6 6 14 2 17 -3 4 -1 13 5
20 7 8 9 17 6 20 -13 12 7 25 40 25 32 0 34 -2 33 -34z m123 28 c0 -10 -20
-84 -27 -102 -3 -8 -7 -22 -7 -30 -1 -9 -14 -15 -38 -16 -38 -3 -61 12 -36 21
8 3 15 20 16 38 5 66 7 82 14 88 11 7 78 8 78 1z m72 -14 c-1 -9 7 -18 18 -21
21 -5 28 -27 9 -27 -6 0 -8 -7 -5 -16 3 -9 3 -21 -1 -27 -4 -7 -8 -19 -8 -27
0 -20 -75 -25 -75 -4 0 8 4 14 8 14 4 0 8 16 9 35 1 20 6 41 12 49 6 7 8 16 5
19 -9 9 6 29 19 24 7 -2 11 -11 9 -19z m392 -25 c-3 -27 -9 -52 -15 -57 -5 -6
-9 -20 -9 -32 0 -18 -6 -22 -35 -22 -32 0 -34 2 -32 27 2 15 7 32 11 39 4 7 5
16 1 21 -7 12 14 26 40 26 11 0 20 7 21 15 2 26 4 30 14 30 6 0 8 -19 4 -47z
m135 38 c2 -1 -2 -8 -9 -16 -6 -8 -9 -19 -6 -24 4 -5 2 -12 -4 -16 -5 -3 -10
-17 -10 -31 0 -13 -4 -24 -9 -24 -5 0 -8 -8 -7 -17 1 -12 -8 -18 -32 -20 -31
-3 -33 -1 -31 25 2 15 7 33 13 40 5 7 6 15 3 19 -4 3 -2 12 4 19 6 8 9 20 6
28 -3 8 -3 16 0 19 4 5 64 3 82 -2z m111 -8 c0 -7 -3 -13 -7 -13 -5 0 -9 -17
-10 -37 -1 -22 -9 -43 -19 -50 -11 -8 -13 -13 -5 -13 28 0 2 -25 -27 -26 l-32
-2 6 46 c3 25 9 53 14 62 5 10 7 20 4 23 -13 13 8 25 41 24 22 -1 35 -6 35
-14z m120 9 c0 -10 -20 -84 -27 -102 -3 -8 -7 -22 -7 -30 -1 -10 -12 -15 -36
-15 -26 0 -34 4 -31 15 2 8 5 31 8 50 2 19 9 37 15 41 6 4 7 12 4 18 -4 6 -5
15 -2 19 6 10 76 13 76 4z m76 -3 c4 -8 9 -7 15 2 7 11 11 11 21 1 8 -8 9 -15
3 -20 -6 -4 -11 -19 -12 -35 0 -15 -4 -35 -8 -45 -5 -9 -9 -24 -9 -32 -1 -9
-13 -15 -34 -16 -33 -2 -50 10 -32 21 6 4 8 15 5 25 -3 10 -1 21 5 25 6 3 8
11 4 16 -3 5 0 16 6 24 10 12 10 15 0 15 -10 0 -10 3 0 15 15 18 26 19 36 4z
m156 -24 c-2 -17 -8 -35 -13 -41 -5 -6 -6 -14 -2 -18 4 -3 -2 -13 -13 -21 -12
-9 -14 -14 -6 -15 31 0 3 -24 -31 -26 -36 -3 -36 -2 -30 29 3 18 13 38 21 45
10 7 11 12 4 12 -8 0 -10 9 -6 28 10 39 11 40 46 38 30 -2 33 -4 30 -31z m126
17 c2 -6 -2 -12 -8 -12 -7 0 -9 -8 -5 -19 3 -11 1 -22 -5 -26 -6 -3 -8 -11 -5
-16 4 -5 3 -15 -2 -21 -4 -7 -8 -20 -8 -28 0 -10 -12 -16 -37 -17 -36 -2 -47
5 -31 21 4 4 9 19 10 34 4 49 9 78 16 89 9 14 69 11 75 -5z m121 9 c2 -1 -2
-7 -8 -15 -6 -7 -9 -21 -5 -30 4 -9 1 -16 -6 -16 -7 0 -10 -7 -6 -16 3 -9 3
-21 -1 -27 -4 -7 -8 -19 -8 -27 0 -10 -12 -16 -38 -17 -38 -2 -38 -2 -31 30 4
18 8 39 9 47 0 9 5 21 9 28 4 7 5 16 2 19 -19 19 41 36 83 24z m120 0 c2 -1
-2 -8 -9 -16 -6 -8 -9 -19 -5 -25 4 -6 2 -17 -4 -24 -6 -7 -12 -26 -13 -42 -3
-34 -13 -44 -50 -44 -18 0 -28 5 -28 15 0 8 4 15 8 15 4 0 9 15 10 33 5 68 7
82 16 88 6 5 58 5 75 0z m120 0 c2 -1 -2 -8 -9 -16 -6 -8 -9 -19 -6 -24 4 -5
2 -12 -4 -16 -5 -3 -10 -17 -10 -31 0 -13 -6 -24 -12 -24 -10 0 -9 -3 1 -9 22
-14 4 -29 -34 -29 -23 0 -35 5 -35 14 0 8 3 14 8 14 4 0 8 10 8 23 2 38 10 82
17 94 5 8 52 11 76 4z m67 -17 c-6 -22 -4 -25 14 -19 14 4 20 2 20 -9 0 -8 -4
-17 -10 -21 -5 -3 -7 -11 -4 -19 3 -7 0 -24 -5 -38 -8 -21 -15 -25 -43 -23
-43 4 -42 3 -29 18 6 8 12 30 13 50 2 20 7 37 12 37 4 0 5 7 2 16 -8 20 1 34
21 34 11 0 14 -6 9 -26z m1469 -6 c-4 -18 -10 -37 -13 -43 -3 -5 -7 -23 -9
-39 -4 -35 -17 -51 -33 -41 -8 5 -8 11 1 21 6 8 9 17 6 20 -3 3 1 21 9 40 8
18 14 37 13 41 -4 21 3 33 17 33 12 0 14 -7 9 -32z m-1345 -38 c13 -18 18 -35
13 -42 -4 -7 -8 -20 -8 -28 0 -9 -11 -15 -32 -16 l-32 -2 6 47 c5 39 18 71 29
71 1 0 12 -13 24 -30z m1413 18 c3 -10 8 -10 22 2 16 14 17 12 10 -20 -5 -19
-9 -42 -10 -50 -2 -27 -13 -36 -42 -34 -25 1 -28 4 -25 30 2 16 8 34 13 40 5
6 6 14 3 17 -7 7 4 27 16 27 4 0 10 -6 13 -12z m-2818 -37 c3 -5 1 -13 -5 -16
-6 -4 -10 -16 -8 -28 3 -19 -2 -22 -34 -24 -26 -1 -38 2 -38 11 0 20 12 27 26
15 11 -9 15 -7 19 5 3 9 7 23 10 31 5 17 21 20 30 6z m-165 -52 c0 -12 -29
-24 -37 -16 -3 4 -3 13 0 21 6 16 37 11 37 -5z m1676 12 c8 7 14 7 19 -1 11
-18 -4 -28 -37 -25 -43 4 -42 3 -28 20 9 11 16 13 23 6 7 -7 14 -7 23 0z m97
-22 c-17 -17 -37 -1 -22 17 8 10 15 12 23 4 7 -7 7 -13 -1 -21z m-2189 -147
c-8 -34 -19 -46 -34 -37 -8 5 -8 10 0 20 7 8 9 19 5 26 -8 12 14 31 27 23 4
-3 5 -17 2 -32z m120 4 c-4 -17 -8 -38 -9 -46 -1 -8 -4 -23 -8 -32 -4 -10 -9
-24 -11 -32 -3 -9 -16 -13 -38 -11 -43 4 -42 3 -29 18 6 8 8 17 4 20 -3 4 -1
13 6 20 6 8 9 21 5 30 -3 8 -1 18 5 22 6 3 11 14 11 24 0 13 8 17 35 17 35 0
35 -1 29 -30z m124 17 c2 -7 0 -13 -5 -13 -5 0 -9 -15 -10 -34 -1 -19 -5 -41
-9 -48 -5 -7 -9 -20 -9 -28 0 -9 -13 -15 -38 -16 -32 -3 -37 0 -33 14 3 9 8
34 12 55 3 20 10 40 15 43 5 3 6 10 3 16 -4 6 -2 13 5 17 18 11 64 7 69 -6z
m114 -4 c-2 -8 -6 -27 -8 -44 -10 -77 -18 -89 -58 -92 -36 -2 -38 -1 -31 24 3
14 9 38 12 54 3 16 10 29 15 29 6 0 7 7 4 16 -9 24 0 32 36 30 23 -2 32 -7 30
-17z m120 -5 c-8 -59 -15 -80 -28 -90 -11 -9 -12 -13 -3 -16 24 -8 -1 -26 -37
-26 -32 0 -35 2 -30 22 3 11 6 29 6 39 0 10 3 16 8 14 4 -3 7 8 8 23 2 48 10
58 46 56 26 -2 32 -6 30 -22z m112 -28 c-3 -28 -10 -56 -15 -62 -5 -7 -8 -18
-7 -25 2 -9 -9 -14 -34 -16 -36 -2 -38 -1 -34 25 3 26 6 34 22 77 4 11 8 25 9
30 1 6 3 12 3 15 1 3 15 5 32 6 l29 1 -5 -51z m135 38 c1 -1 -1 -9 -5 -16 -5
-7 -9 -17 -9 -23 0 -5 -7 -31 -14 -56 -14 -44 -17 -47 -48 -47 -31 0 -32 2
-29 31 2 17 9 33 15 35 7 2 8 8 3 15 -6 8 -4 24 4 44 13 30 17 32 46 26 18 -3
35 -7 37 -9z m115 7 c5 -1 4 -7 -2 -13 -5 -7 -12 -30 -15 -52 -3 -21 -11 -42
-17 -46 -9 -5 -9 -9 -1 -14 20 -12 2 -24 -35 -24 l-36 0 7 47 c4 25 13 53 22
63 10 11 11 18 3 23 -27 16 2 23 74 16z m110 -31 c-4 -19 -10 -36 -15 -38 -4
-2 -6 -9 -3 -17 3 -7 1 -16 -4 -19 -6 -3 -8 -15 -5 -26 4 -17 1 -19 -33 -16
-50 5 -48 4 -37 19 5 6 10 25 11 41 1 16 9 37 18 47 11 13 12 18 3 21 -25 8 2
27 36 25 34 -2 35 -3 29 -37z m120 30 c3 -3 -3 -37 -13 -75 -17 -70 -17 -70
-52 -70 -25 0 -33 4 -30 15 2 8 5 29 8 45 3 17 9 35 15 42 5 7 7 17 3 23 -11
17 3 28 34 26 16 -1 32 -4 35 -6z m118 -26 c-2 -16 -8 -34 -13 -40 -5 -6 -6
-14 -3 -17 3 -3 2 -12 -2 -19 -5 -7 -9 -20 -9 -28 0 -10 -11 -15 -35 -15 -26
0 -34 4 -31 15 2 8 3 23 3 33 0 9 4 17 9 17 6 0 7 9 4 20 -4 12 -2 20 5 20 7
0 9 7 6 16 -9 24 1 32 36 29 30 -3 33 -6 30 -31z m120 1 c-2 -16 -8 -35 -13
-41 -5 -6 -6 -14 -3 -17 3 -3 2 -12 -2 -19 -5 -7 -9 -20 -9 -28 0 -9 -13 -15
-38 -17 -37 -2 -39 -1 -32 24 3 14 9 38 12 54 3 16 10 29 15 29 6 0 7 7 4 16
-9 23 -2 29 36 29 31 0 33 -3 30 -30z m104 21 c23 6 32 -5 17 -19 -3 -4 -8
-19 -9 -33 -2 -15 -6 -34 -10 -43 -4 -9 -8 -23 -8 -31 -1 -10 -13 -16 -38 -17
-21 -1 -38 1 -38 5 0 10 20 84 27 102 3 8 5 19 4 24 -3 13 23 28 27 16 2 -6
15 -7 28 -4z m138 5 c5 -1 3 -7 -3 -15 -6 -7 -9 -20 -5 -29 3 -8 1 -18 -5 -21
-6 -4 -8 -13 -5 -20 3 -8 1 -17 -5 -21 -6 -3 -11 -14 -11 -25 0 -14 -8 -18
-35 -18 -36 0 -53 12 -35 23 5 3 10 15 10 25 0 10 5 31 12 47 6 15 12 33 13
38 1 6 3 13 3 17 1 4 14 5 30 3 15 -2 31 -4 36 -4z m124 -8 c2 -7 -2 -13 -8
-13 -7 0 -9 -8 -5 -19 3 -11 2 -22 -4 -25 -5 -3 -12 -24 -16 -45 -6 -37 -9
-40 -38 -39 -41 1 -51 7 -38 22 6 7 12 27 14 44 2 17 9 37 15 45 7 8 9 17 6
20 -12 12 5 22 37 22 18 0 34 -6 37 -12z m114 -1 c9 -9 9 -12 -1 -12 -8 0 -11
-6 -7 -16 3 -9 3 -21 -1 -27 -8 -13 -13 -31 -17 -62 -2 -14 -11 -21 -32 -22
-43 -2 -59 4 -45 21 6 7 12 26 14 42 2 16 7 37 10 47 4 9 9 23 11 30 5 16 52
15 68 -1z m110 -13 c-1 -13 -5 -31 -9 -39 -3 -8 -5 -23 -4 -32 1 -10 -2 -18
-7 -18 -5 0 -9 -8 -8 -17 1 -13 -7 -18 -29 -19 -38 -1 -49 5 -35 20 5 7 11 26
12 42 1 16 6 34 11 41 5 7 6 17 2 24 -10 15 8 25 42 23 23 -1 28 -5 25 -25z
m122 20 c3 -2 -3 -36 -12 -74 -17 -68 -18 -70 -50 -71 -33 -2 -50 10 -32 21 5
3 10 15 10 26 0 10 5 19 11 19 8 0 8 4 0 14 -9 10 -9 16 -1 21 6 4 9 14 5 23
-3 8 -1 18 4 22 11 6 58 6 65 -1z m118 -19 c-1 -14 -5 -32 -8 -40 -4 -8 -8
-28 -10 -44 -5 -38 -8 -40 -50 -43 -33 -2 -45 9 -23 22 6 4 8 14 5 22 -4 9 -1
22 5 29 6 8 8 14 4 14 -4 0 -2 7 5 15 6 8 9 19 5 26 -10 15 8 25 42 24 24 0
28 -4 25 -25z m120 -6 c-2 -16 -8 -34 -13 -40 -5 -6 -6 -14 -3 -17 3 -3 2 -12
-2 -19 -5 -7 -9 -20 -9 -28 0 -18 -75 -25 -75 -6 0 7 3 16 7 20 4 4 9 19 11
34 2 14 8 32 14 39 5 7 7 17 3 23 -11 18 4 28 37 25 30 -3 33 -6 30 -31z
m1072 -2 c-4 -15 -11 -32 -15 -38 -5 -6 -6 -14 -3 -17 3 -3 2 -12 -2 -19 -5
-7 -9 -20 -9 -28 0 -10 -12 -16 -37 -17 -36 -2 -50 9 -28 22 6 4 8 15 5 26 -5
14 -2 19 11 19 14 0 14 3 4 15 -15 18 -6 30 23 30 12 0 22 5 22 10 0 18 16 36
26 30 5 -4 6 -18 3 -33z m-965 -58 c1 -1 -1 -9 -5 -16 -5 -7 -9 -20 -9 -28 0
-20 -75 -26 -75 -5 0 8 5 17 10 20 6 4 8 11 5 16 -12 18 6 28 38 22 18 -3 34
-7 36 -9z m825 -23 c-10 -38 -11 -39 -49 -39 -34 0 -45 10 -24 23 6 4 8 14 4
23 -8 21 9 29 45 24 26 -4 29 -7 24 -31z m-269 -11 c5 8 11 8 21 -1 20 -17 8
-28 -29 -27 -42 1 -51 7 -36 24 8 10 15 11 24 4 9 -8 15 -8 20 0z m-495 -15
c0 -8 -6 -15 -14 -15 -17 0 -28 14 -19 24 12 12 33 6 33 -9z m640 1 c0 -9 -13
-13 -40 -13 -38 0 -48 6 -33 20 13 13 73 7 73 -7z m-2942 -134 c2 -7 -1 -12
-6 -12 -5 0 -9 -15 -8 -32 1 -18 -1 -40 -5 -48 -4 -8 -10 -23 -13 -32 -11 -38
-26 -17 -21 28 4 31 2 44 -5 39 -18 -11 -32 5 -19 21 6 8 9 17 6 21 -4 3 -3
11 3 17 12 15 63 13 68 -2z m95 7 c18 14 33 -2 21 -21 -4 -7 -9 -23 -10 -36
-2 -14 -6 -32 -10 -41 -4 -9 -8 -23 -8 -31 -1 -21 -76 -25 -76 -5 0 8 5 15 11
15 6 0 8 7 5 17 -4 9 -1 20 6 25 11 6 11 10 0 16 -10 7 -10 11 2 22 9 7 13 17
10 22 -4 6 0 14 7 19 8 5 16 3 20 -3 6 -9 11 -8 22 1z m142 -1 c4 -4 3 -12 -1
-19 -4 -7 -9 -26 -11 -43 -2 -16 -8 -35 -13 -42 -6 -6 -9 -18 -8 -25 2 -8 -10
-13 -34 -15 -21 -2 -38 0 -38 3 0 6 29 122 35 139 4 12 59 14 70 2z m122 -5
c2 -6 -1 -14 -6 -18 -6 -3 -11 -21 -11 -40 0 -19 -5 -37 -10 -40 -6 -4 -9 -14
-8 -23 2 -13 -6 -17 -34 -19 -28 -2 -38 2 -38 12 0 8 5 15 11 15 6 0 8 9 4 20
-3 11 -2 20 2 20 5 0 9 15 10 34 1 19 4 39 7 44 8 13 69 9 73 -5z m107 -37
c-3 -28 -10 -56 -15 -62 -5 -7 -8 -18 -7 -25 2 -9 -9 -14 -34 -16 -43 -2 -42
-5 -23 67 8 30 12 56 10 59 -11 10 17 28 45 28 l29 0 -5 -51z m121 15 c-3 -20
-6 -44 -6 -53 0 -10 -4 -20 -10 -23 -5 -4 -9 -14 -9 -25 0 -14 -8 -18 -36 -18
-34 0 -35 1 -28 32 4 17 8 38 9 46 1 8 5 23 9 33 3 9 8 23 10 30 2 6 18 12 35
13 32 1 32 0 26 -35z m125 24 c0 -6 -5 -16 -12 -23 -9 -9 -9 -12 -1 -12 9 0 8
-10 -3 -35 -7 -19 -14 -44 -14 -55 0 -16 -6 -20 -36 -20 -35 0 -35 1 -28 33 4
17 8 39 9 47 0 9 5 21 9 28 4 7 5 16 2 19 -3 3 -1 11 4 18 12 15 70 15 70 0z
m115 -1 c0 -5 -7 -39 -15 -76 -13 -67 -14 -68 -46 -68 -32 0 -52 14 -36 24 5
3 9 19 10 36 0 17 6 38 13 46 6 8 9 17 6 21 -4 3 -3 11 3 17 11 14 65 13 65 0z
m120 0 c-2 -36 -19 -104 -25 -104 -5 0 -6 -9 -3 -20 5 -17 0 -20 -29 -20 -40
0 -52 8 -38 25 5 7 11 25 13 41 2 17 7 36 11 43 4 7 5 15 2 18 -3 3 -1 12 5
19 11 14 64 12 64 -2z m80 6 c5 -8 11 -8 20 0 21 18 23 -8 5 -80 -16 -64 -17
-65 -53 -68 -35 -3 -46 5 -30 22 4 4 8 23 10 43 1 20 7 40 14 44 6 3 8 12 5
18 -8 12 1 31 14 31 5 0 12 -5 15 -10z m163 -9 c2 -6 0 -11 -5 -11 -5 0 -9
-15 -10 -34 -1 -19 -5 -41 -9 -48 -5 -7 -9 -20 -9 -28 0 -10 -12 -16 -37 -17
-35 -2 -50 9 -30 21 5 3 9 22 10 42 1 21 7 41 13 45 6 4 8 12 5 18 -4 6 -5 15
-2 20 8 12 69 6 74 -8z m120 1 c2 -6 -2 -12 -8 -12 -7 0 -9 -8 -5 -19 3 -11 1
-22 -5 -26 -6 -3 -8 -11 -4 -16 3 -5 1 -16 -5 -23 -7 -8 -10 -20 -9 -27 2 -9
-9 -14 -34 -16 -36 -2 -50 9 -28 22 6 4 8 11 4 16 -3 5 -1 16 5 23 6 7 9 20 5
29 -3 8 0 18 5 22 6 3 9 11 6 16 -11 16 4 27 37 25 17 -1 33 -7 36 -14z m72 7
c0 -8 4 -8 15 1 19 15 40 3 25 -15 -6 -7 -8 -19 -4 -28 3 -8 0 -18 -5 -22 -6
-3 -9 -11 -6 -16 4 -5 3 -15 -2 -21 -4 -7 -8 -20 -8 -28 0 -10 -12 -16 -37
-17 -21 -1 -38 0 -38 3 0 7 29 123 35 142 5 15 25 16 25 1z m164 -6 c3 -7 1
-13 -5 -13 -6 0 -8 -7 -5 -16 4 -9 2 -22 -4 -29 -5 -6 -11 -27 -14 -46 -3 -31
-6 -34 -40 -36 -34 -2 -47 9 -27 21 5 3 7 15 4 26 -3 12 0 20 7 20 7 0 10 7 6
16 -4 9 -1 23 5 30 9 11 8 14 -1 14 -9 0 -10 3 -1 13 6 8 24 14 40 14 17 0 32
-6 35 -14z m116 1 c0 -7 -6 -15 -12 -18 -10 -5 -10 -7 -1 -12 9 -4 10 -11 3
-24 -6 -11 -11 -34 -13 -52 -2 -30 -5 -33 -40 -36 -28 -2 -37 0 -37 12 0 9 3
16 8 16 4 0 8 10 8 23 2 38 10 82 17 93 9 15 67 13 67 -2z m130 7 c3 -1 -3 -7
-12 -14 -9 -7 -16 -20 -15 -28 1 -7 -2 -35 -6 -61 -8 -44 -10 -47 -40 -46 -40
1 -51 7 -39 21 8 11 25 73 27 102 2 28 39 39 85 26z m119 0 c2 -1 -1 -7 -7
-13 -6 -7 -13 -30 -17 -51 -4 -20 -11 -40 -17 -43 -5 -3 -4 -12 3 -20 14 -17
14 -16 -34 -19 -38 -2 -38 -2 -31 29 4 17 8 38 9 46 0 9 5 21 9 28 4 7 5 16 2
19 -19 19 41 36 83 24z m86 -1 c9 15 25 12 25 -5 0 -8 -4 -15 -8 -15 -4 0 -8
-15 -9 -34 -1 -19 -5 -41 -9 -48 -5 -7 -9 -20 -9 -28 0 -10 -11 -15 -30 -16
-38 -1 -49 5 -36 20 6 7 14 37 17 67 6 56 20 75 40 58 8 -7 14 -6 19 1z m143
-8 c2 -6 0 -12 -5 -12 -5 0 -9 -15 -10 -34 -1 -19 -5 -41 -9 -48 -5 -7 -9 -20
-9 -28 0 -10 -11 -15 -30 -16 -39 -1 -49 5 -35 21 7 8 9 19 6 24 -4 5 -1 13 5
16 5 4 8 13 5 21 -3 7 -1 16 5 20 6 3 8 13 5 21 -3 8 -4 18 -1 23 8 12 68 6
73 -8z m118 6 c4 -4 2 -14 -4 -21 -7 -8 -9 -17 -5 -20 3 -4 1 -13 -5 -20 -7
-8 -9 -17 -6 -20 3 -3 2 -12 -2 -19 -5 -7 -9 -20 -9 -28 0 -10 -12 -16 -37
-17 -36 -2 -47 5 -31 21 4 3 8 14 9 24 11 74 16 97 24 102 13 8 57 7 66 -2z
m122 -6 c2 -6 -2 -12 -8 -12 -7 0 -10 -7 -6 -16 3 -9 3 -21 -1 -27 -4 -6 -8
-22 -9 -35 -5 -43 -12 -50 -48 -50 -35 0 -46 10 -26 23 6 4 8 10 5 15 -5 8 5
63 20 106 5 15 67 12 73 -4z m114 -17 c-2 -17 -8 -35 -13 -41 -5 -6 -10 -26
-12 -45 -2 -32 -5 -34 -40 -36 -27 -2 -37 2 -37 12 0 8 5 15 11 15 5 0 7 4 4
10 -5 8 5 62 20 106 2 7 18 11 37 10 30 -2 33 -4 30 -31z m126 17 c2 -6 -2
-12 -8 -12 -7 0 -10 -7 -6 -16 4 -9 2 -22 -4 -29 -5 -7 -11 -27 -13 -46 -2
-31 -5 -34 -40 -37 -28 -2 -37 0 -37 12 0 9 4 16 9 16 5 0 7 9 4 20 -3 11 -1
20 3 20 5 0 9 13 10 29 2 48 10 59 45 57 18 -1 34 -7 37 -14z m121 9 c2 -1 -1
-7 -7 -13 -9 -12 -26 -85 -27 -118 0 -15 -45 -23 -74 -14 -10 3 -11 7 -1 19 7
8 12 30 13 50 1 19 5 35 10 35 5 0 7 6 4 14 -8 21 11 34 46 31 18 -2 34 -3 36
-4z m88 0 c20 20 36 -1 18 -21 -11 -12 -13 -20 -5 -25 7 -4 8 -11 1 -18 -5 -7
-12 -29 -16 -49 -7 -35 -8 -37 -43 -33 -21 1 -39 3 -41 4 -2 1 2 8 9 16 6 8
12 30 13 50 1 19 5 35 10 35 5 0 7 6 4 14 -7 19 13 38 28 26 7 -6 15 -6 22 1z
m140 -8 c2 -6 0 -14 -6 -17 -5 -3 -7 -15 -4 -26 3 -12 0 -20 -6 -20 -7 0 -10
-4 -7 -8 3 -5 2 -22 -3 -38 -6 -25 -13 -29 -44 -31 -35 -2 -48 9 -27 22 6 4 8
11 4 16 -3 5 0 17 7 25 6 8 9 17 6 21 -4 3 -2 12 3 19 6 6 10 16 9 20 -4 24 4
32 33 30 17 -1 33 -7 35 -13z m117 7 c3 -3 -3 -37 -13 -75 -17 -70 -17 -70
-54 -73 -35 -3 -49 9 -26 23 6 4 8 13 5 21 -3 7 -1 16 5 20 6 3 8 12 5 20 -3
7 -1 16 5 19 5 4 7 11 3 16 -12 20 5 37 35 35 16 -1 32 -4 35 -6z m81 0 c4 -6
2 -17 -4 -24 -6 -7 -8 -16 -4 -19 3 -4 0 -13 -6 -21 -7 -8 -10 -20 -7 -25 8
-12 -11 -24 -24 -16 -8 5 -8 11 0 20 6 7 8 20 4 29 -3 9 -2 16 4 16 6 0 9 8 7
18 -4 30 16 45 30 22z m-3050 -271 c0 -8 -13 -14 -33 -15 -32 -2 -48 8 -38 25
9 14 71 5 71 -10z m122 7 c3 -2 1 -11 -3 -18 -5 -7 -9 -19 -10 -26 -3 -20 -11
-25 -24 -17 -6 4 -9 13 -6 21 3 8 -1 14 -9 14 -19 0 -30 21 -16 30 13 7 59 5
68 -4z m118 -6 c0 -9 -12 -15 -33 -16 -32 -2 -48 8 -38 25 9 15 71 7 71 -9z
m115 2 c0 -14 -8 -18 -35 -18 -45 0 -47 23 -2 29 17 2 33 5 35 5 1 1 2 -6 2
-16z m473 -26 c-3 -17 -9 -32 -14 -34 -4 -2 -5 -12 -2 -22 3 -11 1 -20 -5 -20
-6 0 -8 -8 -5 -19 4 -15 -2 -19 -32 -23 -40 -5 -53 5 -35 27 6 8 9 19 6 24 -4
5 -2 13 4 16 6 4 8 15 5 26 -4 11 -2 19 5 19 7 0 9 7 6 17 -9 21 7 31 44 25
27 -4 29 -7 23 -36z m127 25 c0 -4 -3 -11 -7 -14 -3 -4 -8 -21 -10 -39 -2 -18
-7 -36 -12 -41 -5 -5 -7 -15 -5 -22 7 -16 -22 -40 -31 -25 -5 8 -10 8 -20 0
-16 -13 -30 4 -19 22 4 7 9 28 11 47 2 20 8 38 14 42 5 3 7 13 4 22 -5 11 1
16 22 19 32 4 53 -1 53 -11z m117 6 c3 -3 1 -11 -3 -18 -4 -7 -9 -24 -10 -37
-2 -14 -6 -32 -10 -41 -4 -9 -8 -23 -8 -31 -1 -8 -10 -15 -21 -15 -11 -1 -25
-4 -32 -8 -15 -9 -27 9 -17 25 4 7 9 28 11 47 2 20 9 38 15 42 6 4 7 12 4 18
-4 6 -5 15 -2 19 5 9 64 8 73 -1z m100 -2 c7 0 13 -3 14 -8 2 -12 -12 -81 -19
-92 -4 -5 -7 -17 -7 -25 0 -8 -9 -15 -20 -15 -11 -1 -25 -4 -32 -8 -15 -9 -27
9 -17 25 4 7 9 28 11 47 2 20 9 38 15 42 6 4 7 12 3 19 -9 14 14 32 30 22 5
-4 16 -7 22 -7z m141 1 c3 -4 1 -11 -5 -17 -6 -6 -9 -17 -7 -24 3 -7 1 -16 -5
-19 -6 -4 -8 -13 -5 -21 4 -8 -1 -17 -9 -21 -9 -3 -13 -13 -10 -26 5 -15 2
-19 -13 -17 -10 2 -25 0 -32 -4 -14 -10 -30 21 -16 32 5 3 10 22 12 41 1 19 7
37 12 38 6 2 7 8 4 13 -12 20 5 35 36 33 17 -1 34 -5 38 -8z m110 -24 c-1 -18
-5 -35 -9 -37 -4 -3 -10 -23 -14 -45 -7 -42 -19 -58 -30 -40 -5 8 -11 7 -21
-1 -11 -9 -15 -8 -20 6 -4 9 -3 20 2 24 5 3 9 20 9 36 0 17 3 37 7 45 3 8 9
22 11 30 3 9 17 15 35 15 29 0 31 -3 30 -33z m120 24 c9 -5 10 -11 3 -20 -6
-7 -7 -16 -3 -20 4 -4 -1 -14 -11 -21 -11 -8 -14 -16 -8 -20 7 -4 7 -12 2 -23
-5 -9 -12 -26 -16 -36 -4 -15 -9 -16 -17 -8 -8 8 -15 9 -25 1 -10 -9 -14 -7
-20 7 -4 10 -2 19 5 22 7 2 10 8 7 13 -5 7 5 61 19 104 4 12 46 13 64 1z m358
-15 c-3 -9 -8 -29 -12 -46 -4 -16 -9 -34 -13 -40 -3 -5 -6 -17 -6 -25 0 -8 -9
-15 -20 -15 -11 0 -23 -4 -27 -10 -5 -6 -11 -6 -19 2 -9 9 -9 15 0 27 7 8 10
20 7 25 -4 5 -2 12 4 16 6 4 8 11 4 16 -3 5 0 17 7 25 6 8 9 17 6 21 -14 13
14 29 43 25 23 -3 29 -9 26 -21z m360 16 c4 -4 2 -13 -4 -20 -7 -8 -9 -17 -6
-20 3 -3 2 -12 -2 -19 -5 -7 -9 -20 -9 -28 0 -10 -12 -16 -37 -17 -21 -1 -38
0 -38 3 0 18 25 100 31 104 11 8 57 5 65 -3z m116 -22 c-2 -16 -7 -34 -12 -40
-4 -5 -11 -27 -15 -48 -8 -40 -19 -54 -30 -37 -5 8 -11 8 -20 0 -8 -7 -15 -7
-19 -1 -8 13 15 111 26 111 5 0 6 5 3 10 -13 21 3 35 36 35 32 0 34 -2 31 -30z
m128 14 c0 -4 -4 -10 -10 -14 -5 -3 -7 -12 -4 -19 3 -8 1 -17 -5 -21 -6 -3
-11 -19 -11 -34 0 -34 -24 -70 -34 -52 -6 9 -11 9 -21 1 -8 -7 -15 -7 -19 -1
-8 13 15 111 27 111 5 0 6 7 3 16 -3 9 -4 19 -2 23 6 10 76 1 76 -10z m110
-13 c-5 -5 -10 -18 -10 -28 0 -10 -4 -18 -8 -18 -4 0 -7 -16 -7 -35 2 -40 -20
-68 -31 -41 -6 15 -8 15 -18 1 -7 -10 -16 -12 -25 -6 -12 8 -12 12 -2 25 7 8
10 20 7 25 -4 5 -1 13 5 16 5 4 8 13 5 20 -2 7 -2 16 2 20 4 3 7 14 7 23 0 11
11 19 30 23 35 6 62 -8 45 -25z m114 -15 c-6 -28 -10 -32 -30 -27 -19 5 -24 2
-24 -13 0 -23 -15 -35 -30 -26 -8 5 -8 11 -1 19 6 7 12 28 15 47 3 28 8 35 32
40 38 7 46 -1 38 -40z m-2296 27 c-6 -18 -28 -21 -28 -4 0 9 7 16 16 16 9 0
14 -5 12 -12z m278 -14 c-4 -15 -10 -39 -13 -55 -3 -16 -9 -29 -13 -29 -5 0
-6 -9 -3 -20 4 -14 0 -20 -11 -20 -17 0 -20 45 -3 67 5 7 6 17 3 22 -4 5 -2
12 4 16 5 3 10 15 10 26 0 11 7 19 16 19 12 0 15 -6 10 -26z m952 -4 c-1 -17
-5 -33 -10 -36 -4 -3 -8 -14 -8 -25 0 -10 -4 -19 -9 -19 -5 0 -7 -8 -4 -19 4
-15 -2 -19 -27 -23 -23 -3 -34 0 -38 10 -3 9 -1 17 4 19 6 2 9 18 8 36 -1 17
2 37 7 43 5 7 9 16 8 20 -3 20 3 24 35 24 32 0 35 -2 34 -30z m117 -2 c-4 -18
-11 -34 -15 -36 -4 -2 -6 -12 -3 -22 3 -11 0 -20 -6 -20 -5 0 -8 -7 -5 -15 9
-21 -5 -38 -21 -25 -7 6 -20 7 -29 4 -14 -6 -16 -1 -10 37 4 24 11 52 16 61 4
9 8 21 7 25 -3 19 3 23 37 23 35 0 35 -1 29 -32z m239 5 c-4 -16 -11 -33 -15
-39 -5 -6 -6 -14 -3 -17 3 -3 2 -12 -2 -19 -5 -7 -9 -20 -9 -28 0 -10 -12 -16
-37 -17 -37 -2 -50 9 -27 22 6 4 8 13 5 21 -3 7 -1 16 5 20 6 3 8 12 5 20 -3
7 -1 16 5 20 6 3 8 12 5 19 -7 19 3 25 41 25 31 0 33 -2 27 -27z m122 -3 c-1
-16 -4 -30 -8 -30 -5 0 -8 -9 -8 -19 0 -11 -5 -23 -10 -26 -6 -4 -8 -10 -5
-15 3 -4 2 -15 -1 -24 -5 -12 -11 -13 -24 -6 -13 7 -21 7 -26 -1 -4 -7 -10 -7
-16 -1 -6 6 -7 16 -2 23 4 8 9 20 10 29 3 18 11 53 15 60 2 5 6 21 8 33 0 4
16 7 35 7 30 0 33 -2 32 -30z m711 18 c-2 -7 -15 -13 -28 -13 -17 0 -24 -6
-24 -20 0 -11 -7 -20 -15 -20 -8 0 -13 7 -11 15 2 8 5 22 6 30 2 8 4 16 4 18
1 1 17 2 37 2 24 0 34 -4 31 -12z m83 3 c0 -14 -18 -23 -30 -16 -6 4 -8 11 -5
16 8 12 35 12 35 0z"/>
</g>
</svg>
